<svg width="1600" height="900" viewBox="0 0 1600 900" fill="none" xmlns="http://www.w3.org/2000/svg">
  <defs>
    <linearGradient id="bg" x1="160" y1="80" x2="1440" y2="820" gradientUnits="userSpaceOnUse">
      <stop stop-color="#0E1B2E"/>
      <stop offset="1" stop-color="#121724"/>
    </linearGradient>
    <linearGradient id="accent" x1="0" y1="0" x2="1" y2="1">
      <stop stop-color="#5C84FF"/>
      <stop offset="1" stop-color="#7A6BFF"/>
    </linearGradient>
    <filter id="shadow" x="0" y="0" width="1600" height="900" filterUnits="userSpaceOnUse" color-interpolation-filters="sRGB">
      <feDropShadow dx="0" dy="20" stdDeviation="40" flood-color="#000000" flood-opacity="0.28"/>
    </filter>
  </defs>

  <rect width="1600" height="900" rx="28" fill="url(#bg)"/>
  <circle cx="1280" cy="130" r="180" fill="#6B7CFF" opacity="0.10"/>
  <circle cx="260" cy="760" r="220" fill="#2BD1A3" opacity="0.07"/>

  <g filter="url(#shadow)">
    <rect x="88" y="86" width="1424" height="728" rx="26" fill="#111827" opacity="0.90"/>
    <rect x="88" y="86" width="1424" height="728" rx="26" stroke="#22314D"/>

    <rect x="116" y="116" width="1368" height="64" rx="18" fill="#131D2E"/>
    <circle cx="154" cy="148" r="18" fill="#2C3B58"/>
    <rect x="188" y="128" width="56" height="40" rx="12" fill="url(#accent)"/>
    <text x="216" y="154" text-anchor="middle" fill="#FFFFFF" font-family="Segoe UI, Arial, sans-serif" font-size="20" font-weight="700">OT</text>
    <text x="268" y="145" fill="#F7FAFF" font-family="Segoe UI, Arial, sans-serif" font-size="30" font-weight="700">OmniTutor v3</text>
    <text x="268" y="168" fill="#8AA0C9" font-family="Segoe UI, Arial, sans-serif" font-size="14" letter-spacing="1.8">AI STUDY WORKSPACE</text>

    <rect x="116" y="206" width="220" height="580" rx="20" fill="#121B2B"/>
    <text x="140" y="246" fill="#8AA0C9" font-family="Segoe UI, Arial, sans-serif" font-size="14" letter-spacing="1.4">DOCUMENTS</text>
    <rect x="140" y="266" width="172" height="122" rx="20" fill="#141F33" stroke="#2B3A5A" stroke-dasharray="6 6"/>
    <text x="226" y="318" text-anchor="middle" fill="#F3F7FF" font-family="Segoe UI, Arial, sans-serif" font-size="34" font-weight="700">DOC</text>
    <text x="226" y="348" text-anchor="middle" fill="#8EA4CD" font-family="Segoe UI, Arial, sans-serif" font-size="15">Drop files here or click</text>
    <rect x="140" y="406" width="172" height="48" rx="14" fill="#1A2740" stroke="#2C416C"/>
    <text x="160" y="436" fill="#F3F7FF" font-family="Segoe UI, Arial, sans-serif" font-size="14">[PPT] AI_Fundamentals.pptx</text>
    <text x="287" y="436" text-anchor="end" fill="#61E6B0" font-family="Segoe UI, Arial, sans-serif" font-size="14" font-weight="700">OK</text>

    <text x="140" y="498" fill="#8AA0C9" font-family="Segoe UI, Arial, sans-serif" font-size="14" letter-spacing="1.4">STUDY MODE</text>
    <rect x="140" y="520" width="82" height="64" rx="16" fill="url(#accent)"/>
    <rect x="230" y="520" width="82" height="64" rx="16" fill="#1A2740"/>
    <rect x="140" y="592" width="82" height="64" rx="16" fill="#1A2740"/>
    <rect x="230" y="592" width="82" height="64" rx="16" fill="#1A2740"/>
    <text x="181" y="555" text-anchor="middle" fill="#FFFFFF" font-family="Segoe UI, Arial, sans-serif" font-size="24" font-weight="700">D</text>
    <text x="181" y="575" text-anchor="middle" fill="#F7FAFF" font-family="Segoe UI, Arial, sans-serif" font-size="13">Deep Learn</text>
    <text x="271" y="555" text-anchor="middle" fill="#A9B9D8" font-family="Segoe UI, Arial, sans-serif" font-size="24" font-weight="700">R</text>
    <text x="271" y="575" text-anchor="middle" fill="#A9B9D8" font-family="Segoe UI, Arial, sans-serif" font-size="13">Rapid Review</text>

    <rect x="362" y="206" width="694" height="580" rx="22" fill="#0F1726" stroke="#22314D"/>
    <rect x="390" y="236" width="638" height="42" rx="14" fill="#131D2E"/>
    <text x="414" y="262" fill="#D6E0F4" font-family="Segoe UI, Arial, sans-serif" font-size="16">Study - Selected Slides: 1-3</text>
    <rect x="414" y="300" width="590" height="422" rx="22" fill="#FFFFFF"/>
    <rect x="730" y="300" width="274" height="422" fill="#1A1C20" opacity="0.95"/>
    <text x="470" y="416" fill="#1E2433" font-family="Segoe UI, Arial, sans-serif" font-size="32" font-weight="700">AI in Trade Finance:</text>
    <text x="470" y="460" fill="#1E2433" font-family="Segoe UI, Arial, sans-serif" font-size="32" font-weight="700">Transforming Global</text>
    <text x="470" y="504" fill="#1E2433" font-family="Segoe UI, Arial, sans-serif" font-size="32" font-weight="700">Commerce</text>
    <text x="430" y="334" fill="#EDE8D2" font-family="Segoe UI, Arial, sans-serif" font-size="18" font-weight="700">SLIDE 1</text>
    <text x="706" y="668" fill="#F4E6B3" font-family="Segoe UI, Arial, sans-serif" font-size="18">source-aware preview</text>

    <rect x="1082" y="206" width="402" height="580" rx="22" fill="#121B2B" stroke="#22314D"/>
    <text x="1112" y="246" fill="#F5F8FF" font-family="Segoe UI, Arial, sans-serif" font-size="24" font-weight="700">AI Assistant</text>
    <text x="1260" y="246" fill="#8FA4CD" font-family="Segoe UI, Arial, sans-serif" font-size="13">selected-page analysis</text>
    <rect x="1112" y="274" width="342" height="56" rx="16" fill="#172338"/>
    <text x="1138" y="307" fill="#8FA4CD" font-family="Segoe UI, Arial, sans-serif" font-size="15">Word, PDF, PowerPoint or image</text>
    <rect x="1112" y="350" width="342" height="178" rx="18" fill="#18253D" stroke="#2BD1A3" stroke-width="3"/>
    <text x="1136" y="392" fill="#8FE6FF" font-family="Segoe UI, Arial, sans-serif" font-size="18" font-weight="700">Beginner-Friendly Explanation</text>
    <text x="1136" y="430" fill="#F5F8FF" font-family="Segoe UI, Arial, sans-serif" font-size="16">Let us break this down step by step.</text>
    <text x="1136" y="468" fill="#8FE6FF" font-family="Segoe UI, Arial, sans-serif" font-size="16" font-weight="700">What is Trade Finance?</text>
    <text x="1136" y="500" fill="#F5F8FF" font-family="Segoe UI, Arial, sans-serif" font-size="15">The system reads the selected slides first, then</text>
    <text x="1136" y="524" fill="#F5F8FF" font-family="Segoe UI, Arial, sans-serif" font-size="15">teaches the topic like a tutor instead of dumping text.</text>

    <rect x="1112" y="548" width="342" height="110" rx="18" fill="#172338"/>
    <text x="1136" y="584" fill="#8AA0C9" font-family="Segoe UI, Arial, sans-serif" font-size="13" letter-spacing="1.2">EXTRA PROMPT</text>
    <text x="1136" y="620" fill="#6E82A8" font-family="Segoe UI, Arial, sans-serif" font-size="15">Ask a custom question about the current source pack...</text>
    <rect x="1112" y="676" width="84" height="50" rx="14" fill="url(#accent)"/>
    <text x="1154" y="707" text-anchor="middle" fill="#FFFFFF" font-family="Segoe UI, Arial, sans-serif" font-size="14" font-weight="700">Ask</text>
    <rect x="1214" y="676" width="240" height="50" rx="14" fill="#172338"/>
    <text x="1334" y="707" text-anchor="middle" fill="#AFC1DE" font-family="Segoe UI, Arial, sans-serif" font-size="14">Explain | Summarize | Key Points | Feynman</text>
  </g>
</svg>
